<?xml version="1.0" encoding="UTF-8"?>
<svg xmlns="http://www.w3.org/2000/svg" viewBox="0 0 200 200" role="img">
  <defs>
    <radialGradient id="bg" cx="50%" cy="50%" r="55%">
      <stop offset="0%" stop-color="hsl(190,45%,12%)"/>
      <stop offset="100%" stop-color="hsl(190,55%,4%)"/>
    </radialGradient>
    <filter id="glow"><feGaussianBlur stdDeviation="2"/></filter>
  </defs>
  <rect width="200" height="200" fill="url(#bg)"/>
  <g filter="url(#glow)" opacity="0.55"><circle cx="100" cy="100" r="30" fill="none" stroke="#3a86ff" stroke-width="0.6" opacity="0.55"/><circle cx="100" cy="100" r="48" fill="none" stroke="#3a86ff" stroke-width="0.6" opacity="0.45"/><circle cx="100" cy="100" r="66" fill="none" stroke="#3a86ff" stroke-width="0.6" opacity="0.35"/></g>
  <polygon points="63.9,141.5 46.0,89.5 82.1,48.0 136.1,58.5 154.0,110.5 117.9,152.0" fill="none" stroke="#7209b7" stroke-width="2.2" opacity="0.85"/>
  <polygon points="63.9,141.5 46.0,89.5 82.1,48.0 136.1,58.5 154.0,110.5 117.9,152.0" fill="#480475" opacity="0.18"/>
  <circle cx="100" cy="100" r="6" fill="#3a86ff"/><circle cx="100" cy="100" r="14" fill="none" stroke="#3a86ff" stroke-width="1.2" opacity="0.8"/>
  <g><circle cx="108.4" cy="159.4" r="2" fill="#3a86ff" opacity="0.7"/><circle cx="54.3" cy="149.0" r="2" fill="#3a86ff" opacity="0.7"/><circle cx="26.2" cy="94.8" r="2" fill="#3a86ff" opacity="0.7"/><circle cx="53.5" cy="33.6" r="2" fill="#3a86ff" opacity="0.7"/><circle cx="124.3" cy="15.4" r="2" fill="#3a86ff" opacity="0.7"/><circle cx="159.8" cy="74.6" r="2" fill="#3a86ff" opacity="0.7"/><circle cx="163.6" cy="133.8" r="2" fill="#3a86ff" opacity="0.7"/></g>
</svg>
